<?xml version="1.0" standalone="no"?>
<!DOCTYPE svg PUBLIC "-//W3C//DTD SVG 20010904//EN"
 "http://www.w3.org/TR/2001/REC-SVG-20010904/DTD/svg10.dtd">
<svg version="1.0" xmlns="http://www.w3.org/2000/svg"
 width="36.000000pt" height="36.000000pt" viewBox="0 0 36.000000 36.000000"
 preserveAspectRatio="xMidYMid meet">

<g transform="translate(0.000000,36.000000) scale(0.100000,-0.100000)"
fill="#000000" stroke="none">
<path d="M41 316 c-14 -17 -11 -72 4 -69 6 1 11 13 13 27 2 18 10 26 30 28 15
2 27 8 27 13 0 17 -60 17 -74 1z"/>
<path d="M150 315 c0 -10 10 -15 30 -15 20 0 30 5 30 15 0 10 -10 15 -30 15
-20 0 -30 -5 -30 -15z"/>
<path d="M247 324 c-11 -12 3 -24 28 -24 18 0 24 -6 27 -25 2 -14 8 -26 13
-26 15 0 18 50 4 67 -12 14 -60 19 -72 8z"/>
<path d="M170 220 c0 -27 -3 -30 -30 -30 -16 0 -30 -4 -30 -10 0 -5 14 -10 30
-10 27 0 30 -3 30 -30 0 -16 5 -30 10 -30 6 0 10 14 10 30 0 27 3 30 30 30 17
0 30 5 30 10 0 6 -13 10 -30 10 -27 0 -30 3 -30 30 0 17 -4 30 -10 30 -5 0
-10 -13 -10 -30z"/>
<path d="M30 180 c0 -20 5 -30 15 -30 10 0 15 10 15 30 0 20 -5 30 -15 30 -10
0 -15 -10 -15 -30z"/>
<path d="M300 180 c0 -20 5 -30 15 -30 10 0 15 10 15 30 0 20 -5 30 -15 30
-10 0 -15 -10 -15 -30z"/>
<path d="M36 113 c-11 -12 -6 -60 8 -72 17 -14 67 -11 67 4 0 6 -12 11 -26 13
-19 3 -25 9 -25 27 0 25 -12 39 -24 28z"/>
<path d="M306 113 c-3 -3 -6 -17 -6 -29 0 -17 -7 -23 -25 -26 -35 -4 -36 -22
-2 -26 36 -4 57 13 57 49 0 28 -12 44 -24 32z"/>
<path d="M150 45 c0 -10 10 -15 30 -15 20 0 30 5 30 15 0 10 -10 15 -30 15
-20 0 -30 -5 -30 -15z"/>
</g>
</svg>
