<svg version="1.1" preserveAspectRatio="none" xmlns="http://www.w3.org/2000/svg" width="500" height="500" viewBox="0 0 500 500"><rect width="100%" height="100%" fill="#FFFFFF" fill-opacity="1"/><svg viewBox="89.0802 135.8354 336.0478 182.5927" width="333" height="180.93666764073447" x="83.5px" y="159.5317px" xmlns="http://www.w3.org/2000/svg" xmlns:xlink="http://www.w3.org/1999/xlink" preserveAspectRatio="none"><defs></defs><style>.companyName {fill:#5F0080;fill-opacity:1;}.icon1 {fill:#5F0080;fill-opacity:1;}.icon3-str {stroke:#848383;stroke-opacity:1;}</style><g opacity="1" transform="rotate(0 176.9559 294.898)">
<svg width="160.2965" height="23.5301" x="176.9559" y="294.898" version="1.1" preserveAspectRatio="none" viewBox="1.96 -29.08 200.8 29.48">
  <g transform="matrix(1 0 0 1 0 0)" class="icon1"></g>
</svg>
</g><g opacity="1" transform="rotate(-10 89.0802 192.272)">
<svg width="325.0055" height="92.0241" x="89.0802" y="192.272" version="1.1" preserveAspectRatio="none" viewBox="0.4 -33.92 164.39999999999998 46.56">
  <g transform="matrix(1 0 0 1 0 0)" class="companyName"><path id="id-D6z1nYkh9" d="M41.52-7.68L41.52-7.68Q41.52-5.40 39.88-3.44L39.88-3.44Q37.56-0.64 33.68 0.60L33.68 0.60Q30.80 1.52 28.08 1.52L28.08 1.52Q27.08 1.52 26.12 1.40L26.12 1.40Q19.84 0.60 15.48-1.36L15.48-1.36Q11.52 1.56 7.12 1.56L7.12 1.56Q1.92 1.56 0.68-1.32L0.68-1.32Q0.40-2 0.40-2.92Q0.40-3.84 1.32-4.88L1.32-4.88Q2.76-6.48 5.32-6.48L5.32-6.48Q7-6.48 8.36-6Q9.72-5.52 11.72-4.44Q13.72-3.36 14.68-2.88L14.68-2.88Q16.44-4.60 18.32-7.66Q20.20-10.72 21.62-13.66Q23.04-16.60 25.24-20.20Q27.44-23.80 29.72-26.32L29.72-26.32L32-28.92Q28.84-29.48 25.04-29.48Q21.24-29.48 16.68-28.48L16.68-28.48Q10.44-27.16 7.08-23.12L7.08-23.12Q5.04-20.68 5.04-18.48L5.04-18.48Q5.04-15.56 7.88-14.68L7.88-14.68Q8.88-14.40 9.64-14.40Q10.40-14.40 11.40-14.68Q12.40-14.96 13.34-15.86Q14.28-16.76 14.70-17.60Q15.12-18.44 15.12-18.86Q15.12-19.28 15.52-19.28L15.52-19.28Q15.92-19.24 15.96-18.72L15.96-18.72L15.96-18.68Q15.52-15.76 12.84-14.24L12.84-14.24Q11.20-13.36 9.56-13.36L9.56-13.36L7.48-13.72Q3.24-15.20 3.24-19.24L3.24-19.24Q3.24-22 5.68-24.68L5.68-24.68Q9.60-29.08 17.20-30.16L17.20-30.16Q20.88-30.68 24.86-30.68Q28.84-30.68 32.96-29.80L32.96-29.80Q34.08-30.76 34.92-31.08Q35.76-31.40 35.90-31.40Q36.04-31.40 36.08-31.36L36.08-31.36Q36.32-31.36 36.18-31.10Q36.04-30.84 35.30-30.36Q34.56-29.88 34.40-29.48L34.40-29.48Q39.84-28.08 42.24-25.48L42.24-25.48Q43.52-24.04 43.52-22.54Q43.52-21.04 42.64-19.52L42.64-19.52Q41.48-17.52 38.88-16.50Q36.28-15.48 33.64-15.36L33.64-15.36Q36.20-14.56 38.40-13.12L38.40-13.12Q41.52-11.08 41.52-7.68ZM27.52 0.40L27.52 0.40Q32 0.40 35.12-2.16L35.12-2.16Q38.52-4.88 38.52-8.04L38.52-8.04Q38.52-11.32 35.04-13L35.04-13Q33.76-13.60 31.90-14.18Q30.04-14.76 28.90-15.16Q27.76-15.56 27.60-15.92L27.60-15.92Q27.60-16.68 28.76-16.72L28.76-16.72Q29.52-16.72 31.08-16.60Q32.64-16.48 33.76-16.50Q34.88-16.52 36.46-17.30Q38.04-18.08 39.16-19.32L39.16-19.32Q40.96-21.32 40.96-23.08L40.96-23.08Q40.96-26.84 33.92-28.48L33.92-28.48Q31.80-25.56 26.32-16.14Q20.84-6.72 17.88-3.52L17.88-3.52L16.36-2.08Q20.88-0.20 26.08 0.32L26.08 0.32Q26.84 0.40 27.52 0.40ZM13.80-2.12L13.80-2.12Q9.12-4.36 7.88-4.80Q6.64-5.24 5.42-5.24Q4.20-5.24 3.48-4.38Q2.76-3.52 2.76-2.82Q2.76-2.12 3.08-1.48L3.08-1.48Q3.96 0.32 6.76 0.32L6.76 0.32Q10.56 0.32 13.80-2.12Z M49.40-15.56Q48.84-15.08 48.16-15.08Q47.48-15.08 47.08-15.56Q46.68-16.04 46.76-16.72L46.76-16.72Q46.88-17.40 47.44-17.88Q48-18.36 48.68-18.36Q49.36-18.36 49.78-17.88Q50.20-17.40 50.08-16.72Q49.96-16.04 49.40-15.56ZM45.48-0.88L45.48-0.88Q46.24-0.88 47.08-1.64L47.08-1.64Q48.56-3.12 50.84-7.68L50.84-7.68Q51.12-8.28 51.40-8.04L51.40-8.04Q51.48-7.96 51.48-7.78Q51.48-7.60 51.16-6.90Q50.84-6.20 50.58-5.64Q50.32-5.08 49.58-3.82Q48.84-2.56 48.24-1.88L48.24-1.88Q46.60 0 45.14 0Q43.68 0 43.04-0.88Q42.40-1.76 42.40-2.84Q42.40-3.92 42.92-5.20L42.92-5.20L45.48-11.72Q45.56-11.96 45.56-12.36Q45.56-12.76 45.08-13.40L45.08-13.40L47.28-13.44Q48.20-13.44 48.36-13.10Q48.52-12.76 48.12-12.04L48.12-12.04L44.92-4.56Q44.24-3.08 44.24-2.04L44.24-2.04Q44.24-0.88 45.48-0.88Z M49.88-3.20L49.88-3.20Q49.88-6.52 53.08-14.32L53.08-14.32L51-14.32Q50.80-14.32 50.74-14.54Q50.68-14.76 50.78-14.98Q50.88-15.20 51.08-15.20L51.08-15.20L53.48-15.20Q54.92-18.36 56.16-20.48Q57.40-22.60 58.44-23.34Q59.48-24.08 59.94-24.08Q60.40-24.08 60.60-24L60.60-24Q61.52-23.56 61.52-22.18Q61.52-20.80 60.60-18.84Q59.68-16.88 58.80-15.20L58.80-15.20L60.72-15.20Q60.92-15.20 60.98-14.98Q61.04-14.76 60.94-14.54Q60.84-14.32 60.64-14.32L60.64-14.32L58.32-14.32Q56.12-10.60 53-7.72L53-7.72L52.08-3.64Q51.96-3.12 51.96-2.62Q51.96-2.12 52.24-1.60Q52.52-1.08 53.12-1.08L53.12-1.08Q53.80-1.08 54.64-1.56L54.64-1.56Q56.56-3 58.88-7.60L58.88-7.60Q59.04-7.96 59.26-8.04Q59.48-8.12 59.52-7.94Q59.56-7.76 59.40-7.36L59.40-7.36Q58.08-4.60 57.32-3.44L57.32-3.44Q55.16 0.04 52.72 0.04L52.72 0.04Q51.48 0.04 50.68-0.88Q49.88-1.80 49.88-3.20ZM55.92-15.20L57.92-15.20Q60.56-19.92 60.56-21.76L60.56-21.76Q60.56-22.56 60.28-22.56L60.28-22.56Q59.84-22.56 58.94-21.28Q58.04-20 55.92-15.20L55.92-15.20ZM57.40-14.32L57.40-14.32L55.52-14.32Q55.04-13.20 53.36-9L53.36-9Q55.52-11.24 57.40-14.32Z M102.88-6.08L102.88-6.08Q102.64-7.44 102.56-8.32Q102.48-9.20 102.48-10.14Q102.48-11.08 102.80-11.20L102.80-11.20Q102.84-11.20 102.92-11.20L102.92-11.20Q104.12-11.20 107.36-12.84Q110.60-14.48 114.74-17.26Q118.88-20.04 123.38-24.38Q127.88-28.72 130.80-33.16L130.80-33.16Q131.32-33.92 131.68-33.92L131.68-33.92Q131.80-33.92 131.94-33.80Q132.08-33.68 132.08-33.40Q132.08-33.12 131.80-32.64L131.80-32.64Q127.24-25.08 118.96-18.42Q110.68-11.76 105.12-10.36L105.12-10.36Q105.04-10.24 105.04-9.86Q105.04-9.48 105.12-8.60Q105.20-7.72 105.90-5.22Q106.60-2.72 107.52-0.60L107.52-0.60Q110.24 5.64 114.68 5.64L114.68 5.64Q117.24 5.64 119.58 4.56Q121.92 3.48 122.96 1.44L122.96 1.44Q123.20 0.88 123.56 0.88Q123.92 0.88 123.48 1.76L123.48 1.76Q122.40 3.96 119.70 5.66Q117 7.36 114.16 7.36Q111.32 7.36 108.80 5.28L108.80 5.28Q104.40 1.68 102.88-6.08ZM108.24-28.80Q108.68-29.56 109.58-30.66Q110.48-31.76 111.14-31.94Q111.80-32.12 112.42-32.12Q113.04-32.12 113.36-31.60Q113.68-31.08 113.68-30.56Q113.68-30.04 112.92-29.36L112.92-29.36Q111.64-28.20 108.88-27.92L108.88-27.92Q106.60-23.80 103.64-14.68L103.64-14.68Q102.56-11.36 100.74-7.62Q98.92-3.88 96.84-1.08Q94.76 1.72 91.34 3.86Q87.92 6 83.60 6.64L83.60 6.64Q82.20 6.84 80.50 6.84Q78.80 6.84 76.80 6.40L76.80 6.40Q69.48 4.72 67.36-0.80L67.36-0.80Q66.72-2.48 66.72-4.14Q66.72-5.80 67.18-7.56Q67.64-9.32 69.18-10.70Q70.72-12.08 71.72-12.20L71.72-12.20Q72.24-12.28 72.24-11.96L72.24-11.96Q72.24-11.76 72.00-11.64L72.00-11.64Q71.04-11.20 69.68-9.56L69.68-9.56Q67.92-7.40 67.92-4.20L67.92-4.20Q67.92-0.92 69.92 1.12L69.92 1.12Q72.36 3.68 75.68 4.32L75.68 4.32Q77.96 4.76 79.44 4.76Q80.92 4.76 82.04 4.44L82.04 4.44Q85.32 3.68 88.18 2.06Q91.04 0.44 92.98-1.38Q94.92-3.20 96.70-5.74Q98.48-8.28 99.50-10.20Q100.52-12.12 103.12-18Q105.72-23.88 107.68-27.84L107.68-27.84Q107.08-27.76 104.24-27.52L104.24-27.52Q99-27.08 96.08-26.24L96.08-26.24Q90.60-24.72 88.28-20.40L88.28-20.40Q87.16-18.32 87.16-16.36L87.16-16.36Q87.16-15.32 87.48-14.32L87.48-14.32Q88.36-11.64 90.96-11.64L90.96-11.64Q94.24-11.64 95.56-15.04L95.56-15.04Q96.20-16.68 96.20-17.76Q96.20-18.84 96.12-19.28Q96.04-19.72 96.24-19.72L96.24-19.72Q96.56-19.64 96.80-19.20L96.80-19.20Q97.16-18.36 97.16-17.22Q97.16-16.08 96.40-14.60L96.40-14.60Q95.20-12.08 93.04-11.28L93.04-11.28Q91.72-10.80 90.56-10.80L90.56-10.80Q88.56-10.80 86.96-12.24L86.96-12.24Q84.80-14.16 84.80-17.24L84.80-17.24Q84.80-21.60 88.88-24.56L88.88-24.56Q92.64-27.36 99.76-28.12L99.76-28.12Q101.92-28.36 104.70-28.54Q107.48-28.72 108.24-28.80L108.24-28.80ZM112.44-30.56L112.44-30.56Q112.44-31 112.08-31L112.08-31Q111.64-31 111.18-30.62Q110.72-30.24 109.60-28.92L109.60-28.92Q110.76-29.08 111.36-29.40L111.36-29.40Q112.44-29.92 112.44-30.56Z M113.60-2.32L113.60-2.32Q113.60-4.04 115.08-6.48L115.08-6.48Q114.44-6.48 114.72-7.12L114.72-7.12L115.44-8.52Q116.80-11.12 117.68-12.92L117.68-12.92Q118.08-13.76 119.24-13.76L119.24-13.76L121.68-13.76Q120.24-12.72 118.78-9.74Q117.32-6.76 116.52-5.06Q115.72-3.36 115.72-2.48Q115.72-1.60 116.02-1.24Q116.32-0.88 116.84-0.88L116.84-0.88Q117.60-0.88 118.96-2.48L118.96-2.48Q121.08-4.96 124.92-12.92L124.92-12.92Q125.36-13.76 126.48-13.76L126.48-13.76L128.64-13.76Q127.76-13.08 127.26-12.36Q126.76-11.64 125.88-9.80L125.88-9.80Q123.48-5 123.20-3.44L123.20-3.44Q123.08-2.88 123.08-2.40L123.08-2.40Q123.08-1.12 123.96-1.04L123.96-1.04Q126.12-1.04 129.28-7.72L129.28-7.72Q129.52-8.28 129.76-8.16Q130-8.04 130-7.84Q130-7.64 129.64-6.92Q129.28-6.20 128.94-5.52Q128.60-4.84 127.90-3.66Q127.20-2.48 126.60-1.80L126.60-1.80Q125.04-0.04 123.54-0.04Q122.04-0.04 121.48-1.36L121.48-1.36Q121.24-1.96 121.24-2.88Q121.24-3.80 121.64-5.16L121.64-5.16Q118.72-0.04 116.24-0.04L116.24-0.04Q114.08-0.04 113.72-1.84L113.72-1.84Q113.60-2.04 113.60-2.32Z M134.64-16.04L134.64-16.04Q134.64-14.24 132.36-12.64L132.36-12.64Q133.16-12.60 134.50-12.60Q135.84-12.60 137.88-12.80L137.88-12.80Q137.96-12.68 137.96-12.16Q137.96-11.64 137.48-10.62Q137-9.60 136.62-8.86Q136.24-8.12 135.90-7.46Q135.56-6.80 135.14-5.84Q134.72-4.88 134.44-4.08L134.44-4.08Q133.44-1.04 134.76-1.04L134.76-1.04Q136.44-1.04 139.72-7.72L139.72-7.72Q140-8.24 140.18-8.12Q140.36-8 140.36-7.82Q140.36-7.64 139.84-6.58Q139.32-5.52 138.72-4.40Q138.12-3.28 136.84-1.80L136.84-1.80Q135.32 0.04 133.92 0.04L133.92 0.04Q132.36 0.04 131.76-1.84L131.76-1.84Q131.64-2.20 131.64-2.92Q131.64-3.64 132.10-4.84Q132.56-6.04 133.56-7.76Q134.56-9.48 134.68-9.78Q134.80-10.08 134.80-10.36L134.80-10.36Q134.80-11.60 131.60-11.68L131.60-11.68L131.12-10.40Q128.60-3.80 126.28-1.56L126.28-1.56Q125.88-1.20 125.88-1.80L125.88-1.80Q125.88-1.92 125.96-2.08L125.96-2.08Q128.20-5.04 129.84-9.08Q131.48-13.12 132.12-16.76L132.12-16.76Q132.36-18 133.24-18Q134.12-18 134.52-16.88L134.52-16.88Q134.64-16.52 134.64-16.04Z M141.88-7.72Q141.84-7.56 141.52-6.62Q141.20-5.68 140.98-4.82Q140.76-3.96 140.76-3.10Q140.76-2.24 141.16-1.50Q141.56-0.76 142.44-0.76L142.44-0.76Q143.88-0.76 145.24-2.70Q146.60-4.64 148.12-7.64L148.12-7.64Q148.44-8.20 148.72-8.08L148.72-8.08Q148.92-7.92 148.80-7.66Q148.68-7.40 148.30-6.54Q147.92-5.68 147.74-5.34Q147.56-5 147.10-4.14Q146.64-3.28 146.30-2.86Q145.96-2.44 145.38-1.78Q144.80-1.12 144.28-0.80L144.28-0.80Q142.88 0.08 141.64 0.08Q140.40 0.08 139.72-0.46Q139.04-1 138.90-1.62Q138.76-2.24 138.76-2.72Q138.76-3.20 138.80-3.96L138.80-3.96Q138.92-5.24 139.30-6.44Q139.68-7.64 139.72-7.80L139.72-7.80Q140.64-11.12 142.34-15.04Q144.04-18.96 145.22-20.94Q146.40-22.92 147.08-23.64L147.08-23.64Q148.44-25.08 149.76-25.08L149.76-25.08Q150.68-25.08 151-23.76L151-23.76Q151.04-23.52 151.04-23.16L151.04-23.16Q151.04-21.80 150.08-19.72L150.08-19.72Q146.64-12.08 141.88-7.72L141.88-7.72ZM142.20-9Q144.24-11.08 146.24-14.24Q148.24-17.40 149.18-19.62Q150.12-21.84 150.12-22.64Q150.12-23.44 149.84-23.44L149.84-23.44Q149.44-23.44 148.32-21.86Q147.20-20.28 145.30-16.18Q143.40-12.08 142.20-9L142.20-9Z M142.60 12.64L142.60 12.64Q140.84 12.64 139.88 11.90Q138.92 11.16 138.92 10.12Q138.92 9.08 139.52 7.76L139.52 7.76Q140.56 5.72 143.28 4.48L143.28 4.48Q145.32 3.52 148.68 2.70Q152.04 1.88 153 1.60L153 1.60Q154.44-0.92 156.44-7.40L156.44-7.40Q154.12-3.32 152.56-1.68Q151-0.04 149.40-0.04L149.40-0.04Q147.24-0.04 146.88-1.84L146.88-1.84Q146.72-2.12 146.80-2.68Q146.88-3.24 146.90-3.48Q146.92-3.72 147.16-4.26Q147.40-4.80 147.48-5.04L147.48-5.04Q147.92-5.96 148.24-6.48L148.24-6.48Q147.60-6.48 147.88-7.12L147.88-7.12L148.60-8.52Q149.96-11.12 150.84-12.92L150.84-12.92Q151.24-13.76 152.40-13.76L152.40-13.76L154.84-13.76Q154.76-13.68 154.44-13.44L154.44-13.44Q153.72-12.96 153.36-12.32L153.36-12.32Q151.92-9.84 149.76-5.24L149.76-5.24Q148.88-3.36 148.88-2.48Q148.88-1.60 149.18-1.24Q149.48-0.88 150-0.88L150-0.88Q150.76-0.88 152.12-2.48L152.12-2.48Q154.96-5.80 158.40-12.92L158.40-12.92Q158.84-13.76 159.96-13.76L159.96-13.76L162.12-13.76Q161.08-13.04 160.48-11.94Q159.88-10.84 159.18-8.96Q158.48-7.08 157.42-3.96Q156.36-0.84 155.80 0.72L155.80 0.72Q159.56-0.40 161.56-3.24L161.56-3.24Q162.44-4.48 164.08-7.64L164.08-7.64Q164.36-8.20 164.58-8.08Q164.80-7.96 164.80-7.76Q164.80-7.56 164.14-6.22Q163.48-4.88 162.80-3.74Q162.12-2.60 161.04-1.40Q159.96-0.20 158.64 0.50Q157.32 1.20 155.12 2L155.12 2Q152.04 7.60 148.92 10.24L148.92 10.24Q146 12.64 142.60 12.64ZM140.28 8.68L140.28 8.68Q139.84 9.56 139.84 10.30Q139.84 11.04 140.40 11.44Q140.96 11.84 141.80 11.84L141.80 11.84Q144.12 11.84 146.76 9.46Q149.40 7.08 151.40 4.36L151.40 4.36L152.28 2.88Q145.68 4.60 143.96 5.36L143.96 5.36Q141.40 6.48 140.28 8.68Z"/></g>
</svg>
</g></svg></svg>